<svg width="276" height="276" viewBox="0 0 276 276" fill="none" xmlns="http://www.w3.org/2000/svg">
<rect x="28" y="28" width="220" height="220" rx="46" fill="#FBEE73"/>
<path fill-rule="evenodd" clip-rule="evenodd" d="M76.5 209.574C76.5 215.884 81.6078 221 87.9088 221H123.668C129.969 221 135.077 215.884 135.077 209.574V173.084C135.077 170.095 137.497 167.671 140.482 167.671H161.805C168.106 167.671 173.214 162.555 173.214 156.245V114.343H188.09C194.392 114.343 199.5 109.226 199.5 102.916V66.4261C199.5 60.1154 194.392 55.0003 188.09 55.0003H87.9088C81.6078 55.0003 76.5 60.1157 76.5 66.4261V209.574ZM167.209 114.343H116.367C110.065 114.343 104.957 109.226 104.957 102.916V93.0906C104.957 86.7799 110.065 81.6648 116.367 81.6648H161.805C168.106 81.6648 173.214 86.7801 173.214 93.0906V108.329H188.09C191.076 108.329 193.495 105.905 193.495 102.916V66.4261C193.495 63.4371 191.076 61.0139 188.09 61.0139H87.9088C84.924 61.0139 82.5046 63.4369 82.5046 66.4261V209.574C82.5046 212.563 84.924 214.986 87.9088 214.986H123.668C126.653 214.986 129.072 212.563 129.072 209.574V173.084C129.072 166.774 134.181 161.657 140.482 161.657H161.805C164.789 161.657 167.209 159.234 167.209 156.245V114.343ZM167.209 108.329V93.0906C167.209 90.1013 164.789 87.6783 161.805 87.6783H116.367C113.381 87.6783 110.962 90.1016 110.962 93.0906V102.916C110.962 105.905 113.381 108.329 116.367 108.329H167.209Z" fill="#0B031D" stroke="#0B031D" stroke-miterlimit="10"/>
</svg>
