<svg width="34" height="34" viewBox="0 0 34 34" fill="none" xmlns="http://www.w3.org/2000/svg">
<path fill-rule="evenodd" clip-rule="evenodd" d="M12.7763 25.4534V30.7231C12.7763 31.1339 12.6659 31.5193 12.4726 31.852H10.468C11.0994 31.8499 11.6104 31.3453 11.6104 30.7231V25.4534C11.6104 24.1959 12.6459 23.1763 13.9231 23.1763H18.5643C19.1975 23.1763 19.7108 22.6709 19.7108 22.0474V15.9066H8.96192C7.68453 15.9066 6.6493 14.887 6.6493 13.6296V10.4988C6.6493 9.24124 7.68462 8.22192 8.96192 8.22192H18.5643C19.8414 8.22192 20.8767 9.24129 20.8767 10.4988V14.7587V15.9066V22.0474C20.8767 23.305 19.8414 24.3243 18.5643 24.3243H13.9231C13.2898 24.3243 12.7763 24.8299 12.7763 25.4534ZM19.7108 14.7587V10.4988C19.7108 9.8753 19.1975 9.36991 18.5643 9.36991H8.96192C8.32843 9.36991 7.8152 9.87534 7.8152 10.4988V13.6296C7.8152 14.2531 8.32852 14.7587 8.96192 14.7587H19.7108Z" fill="white"/>
<path d="M20.8767 15.9066H23.7175H31.8341V14.7587H25.7263H23.7175H20.8767V15.9066Z" fill="white"/>
<path fill-rule="evenodd" clip-rule="evenodd" d="M3.31242 33C2.03527 33 1 31.9806 1 30.7231V3.27688C1 2.01937 2.03527 1 3.31242 1L21.7488 1H30.6876C31.9647 1 33 2.01936 33 3.27688V14.7587V15.9066V30.7231C33 31.9806 31.9647 33 30.6876 33H12.4726H10.468L10.4639 33L10.2825 33L3.31242 33ZM2.1659 3.27688C2.1659 2.65338 2.67918 2.14799 3.31242 2.14799L21.148 2.14798H25.7264H30.6876C31.3208 2.14798 31.8341 2.65338 31.8341 3.27688V14.7587V15.9066V30.7231C31.8341 31.3466 31.3208 31.852 30.6876 31.852H12.4726H10.468L10.4639 31.852H3.31242C2.67918 31.852 2.1659 31.3466 2.1659 30.7231V3.27688Z" fill="white"/>
<path d="M3.31242 33C2.03527 33 1 31.9806 1 30.7231V3.27688C1 2.01937 2.03527 1 3.31242 1L21.7488 1M3.31242 33H10.4639M3.31242 33L10.2825 33M10.4639 33L10.2825 33M10.4639 33L10.468 33M20.8767 15.9066V22.0474C20.8767 23.305 19.8414 24.3243 18.5643 24.3243H13.9231C13.2898 24.3243 12.7763 24.8299 12.7763 25.4534V30.7231C12.7763 31.1339 12.6659 31.5193 12.4726 31.852M20.8767 15.9066H23.7175H31.8341M20.8767 15.9066V14.7587M23.7175 1L21.7488 1M20.8767 14.7587V10.4988C20.8767 9.24129 19.8414 8.22192 18.5643 8.22192H8.96192C7.68462 8.22192 6.6493 9.24124 6.6493 10.4988V13.6296C6.6493 14.887 7.68453 15.9066 8.96192 15.9066H19.7108V22.0474C19.7108 22.6709 19.1975 23.1763 18.5643 23.1763H13.9231C12.6459 23.1763 11.6104 24.1959 11.6104 25.4534V30.7231C11.6104 31.3453 11.0994 31.8499 10.468 31.852M20.8767 14.7587H23.7175H25.7263H31.8341M23.7175 2.14799L21.148 2.14798M3.31242 31.852C2.67918 31.852 2.1659 31.3466 2.1659 30.7231V3.27688C2.1659 2.65338 2.67918 2.14799 3.31242 2.14799L21.148 2.14798M3.31242 31.852H10.4639M3.31242 31.852L10.2825 31.852M10.4639 31.852L10.2825 31.852M10.4639 31.852L10.468 31.852M10.2825 33H10.468M10.2825 31.852H10.468M21.148 2.14798H25.7264H30.6876C31.3208 2.14798 31.8341 2.65338 31.8341 3.27688V14.7587M21.7488 1H30.6876C31.9647 1 33 2.01936 33 3.27688V14.7587M12.4726 31.852H30.6876C31.3208 31.852 31.8341 31.3466 31.8341 30.7231V15.9066M12.4726 31.852H10.468M12.4726 31.852V33M31.8341 14.7587V15.9066M31.8341 14.7587H33M31.8341 15.9066H33M10.468 33H12.4726M33 15.9066V30.7231C33 31.9806 31.9647 33 30.6876 33H12.4726M33 15.9066V14.7587M19.7108 14.7587V10.4988C19.7108 9.8753 19.1975 9.36991 18.5643 9.36991H8.96192C8.32843 9.36991 7.8152 9.87534 7.8152 10.4988V13.6296C7.8152 14.2531 8.32852 14.7587 8.96192 14.7587H19.7108Z" stroke="white" stroke-miterlimit="10"/>
</svg>
