<?xml version="1.0" standalone="no"?>
<!DOCTYPE svg PUBLIC "-//W3C//DTD SVG 20010904//EN"
 "http://www.w3.org/TR/2001/REC-SVG-20010904/DTD/svg10.dtd">
<svg version="1.0" xmlns="http://www.w3.org/2000/svg"
 width="700.000000pt" height="700.000000pt" viewBox="0 0 700.000000 700.000000"
 preserveAspectRatio="xMidYMid meet">
<metadata>
Created by potrace 1.14, written by Peter Selinger 2001-2017
</metadata>
<g transform="translate(0.000000,700.000000) scale(0.100000,-0.100000)"
fill="#000000" stroke="none">
<path d="M561 6883 c-171 -35 -323 -155 -399 -313 -24 -50 -44 -111 -50 -148
-5 -38 -9 -1225 -9 -2930 0 -2342 3 -2879 13 -2932 45 -219 231 -402 452 -444
105 -20 5775 -19 5870 1 232 48 409 233 450 471 6 31 9 1236 8 2945 l-2 2892
-22 65 c-31 94 -88 184 -155 246 -70 65 -125 98 -220 132 l-72 26 -2900 1
c-2372 1 -2912 -1 -2964 -12z m5814 -441 c17 -7 39 -25 50 -40 20 -27 20 -45
23 -1182 l2 -1155 -1012 1 c-557 1 -1018 2 -1025 3 -10 1 -12 95 -12 409 0
224 -3 425 -6 447 -19 114 -79 229 -165 315 -75 75 -153 120 -260 149 -73 21
-93 21 -1140 21 -1173 0 -1105 3 -1248 -65 -102 -48 -206 -152 -255 -256 -58
-120 -63 -175 -61 -604 2 -362 3 -383 24 -449 49 -156 154 -281 291 -349 135
-67 105 -65 1290 -66 588 0 1073 -2 1077 -5 4 -2 7 -272 7 -600 0 -583 -1
-596 -21 -623 -46 -64 -35 -62 -629 -64 -532 -1 -541 -1 -606 -23 -113 -39
-162 -69 -240 -147 -85 -84 -137 -177 -159 -284 -8 -43 -12 -233 -13 -652 -2
-583 -2 -592 -23 -620 -44 -59 -11 -57 -839 -58 -418 -1 -772 3 -786 7 -14 5
-39 23 -55 39 l-29 30 -3 2852 c-1 1569 0 2866 3 2884 7 37 41 73 84 88 49 16
5697 14 5736 -3z m-2478 -1498 c57 -42 57 -44 58 -476 0 -263 -3 -399 -10
-401 -5 -2 -490 -3 -1077 -3 -1062 1 -1067 1 -1095 22 -61 44 -62 54 -62 426
-1 390 1 402 72 437 41 21 51 21 1064 18 1019 -2 1022 -2 1050 -23z m2506
-1323 l47 -1 -2 -1500 -3 -1500 -31 -30 c-17 -17 -46 -35 -65 -39 -26 -5
-3584 -8 -3622 -2 -4 0 -5 18 -1 39 4 20 8 300 9 622 1 457 4 591 14 611 7 15
30 36 51 48 36 20 47 21 571 21 511 1 538 2 604 21 159 47 286 149 358 286 67
127 68 143 68 819 l0 603 77 3 c60 2 1702 1 1925 -1z"/>
</g>
</svg>
