<svg version="1.1" id="logo" xmlns="http://www.w3.org/2000/svg" preserveAspectRatio="none" width="170" height="80"
     viewBox="0 0 170 80"><title id="logoTitle">Banking Circle</title><g id="logoText"><path d="M164.7,27.7v2.6h2.1v1.9c0,1.9-0.5,2.6-1.8,2.6c-1.1,0-1.5-0.8-1.5-2V23c0-1.6,0.6-2.1,1.4-2.1c1.3,0,1.9,0.7,1.9,3.6h3.1
		v-1.2c0-2.8-1.6-5.2-4.9-5.2c-3.2,0-4.8,2.2-4.8,4.9v9.8c0,3,1.8,4.9,4.4,4.9c1.5,0,2.3-0.5,3.3-1.7l0.6,1.5h1.6v-9.6H164.7z"></path><polygon points="154.1,29.2 154.1,29.2 150.1,18.3 147.1,18.3 147.1,37.3 150,37.3 150,25.4 150.1,25.4 154.2,37.3 157,37.3
		157,18.3 154.1,18.3"></polygon><polygon points="147.3,53.2 151.5,53.2 151.5,50.4 147.3,50.4 147.3,45.5 152.7,45.5 152.7,42.7 152.7,42.7 144,42.7 144,61.7
		153.1,61.7 153.1,58.8 147.3,58.8"></polygon><rect x="140.2" y="18.3" width="3.2" height="19"></rect><polygon points="138.4,37.4 138.4,37.3 134.5,25.4 138,18.3 134.8,18.3 131.4,25.4 131.3,25.4 131.3,18.3 128,18.3 128,37.3
		131.3,37.3 131.3,30.6 132.4,28.5 132.5,28.5 135.2,37.4 	"></polygon><path d="M127,42.4c-3.4,0-5,2.2-5,4.9v9.8c0,2.7,1.6,4.9,5,4.9c3.2,0,4.8-2.2,4.8-4.9v-2.2h-3.2v2.3c0,1.2-0.4,1.9-1.6,1.9
		c-1.3,0-1.8-0.7-1.8-2.1v-9.6c0-1.4,0.4-2.1,1.8-2.1c0.9,0,1.6,0.7,1.6,2.3v1.5h3.2v-1.4C131.8,44.8,130.2,42.4,127,42.4z"></path><polygon points="118,25.4 118.1,25.4 122.2,37.3 125.1,37.3 125.1,18.3 122.1,18.3 122.1,29.2 122.1,29.2 118.2,18.3 115.1,18.3
		115.1,37.3 118,37.3"></polygon><path d="M95.5,42.5c-3.4-0.1-5,2.1-5,4.7h0v9.8c0,2.7,1.6,4.9,5,4.9c3.2,0,4.8-2.2,4.8-4.9v-2.2h-3.2v2.3c0,1.2-0.4,1.9-1.6,1.9
		c-1.3,0-1.8-0.7-1.8-2.1v-9.6c0-1.4,0.4-2.1,1.8-2.1c0.8,0,1.6,0.7,1.6,2.3v1.5h3.2v-1.4C100.3,44.9,98.7,42.5,95.5,42.5z"></path><rect x="103.4" y="42.7" width="3.2" height="19"></rect><polygon points="137.5,42.7 134.3,42.7 134.3,61.7 142.6,61.7 142.6,58.8 137.5,58.8"></polygon><path d="M117.3,53.1c1.1-0.5,2.3-1.8,2.3-4.8c0.1-4.1-1.8-5.6-5.5-5.6h-4.6v19h3.2v-7.8c0.6,0,1.3,0,1.7-0.1l2.3,7.8h3.3
		L117.3,53.1z M114,51.2h-1.2v-5.9h1.2c1.7,0,2.4,0.7,2.4,2.9S115.8,51.2,114,51.2z"></path><path d="M109.7,18.3h-4l-3.5,19h3.1l0.6-4.2h3.6l0.6,4.2h3.1L109.7,18.3z M106.4,30.3l1.3-8.2h0.1l1.3,8.2H106.4z"></path><path d="M98,27.3L98,27.3c1.6-0.6,2.2-2.3,2.2-3.9c0-3.3-1.5-5-5-5h-4.8v19h5.2c3.7,0,5.1-2.3,5.1-5.5
		C100.6,29.4,99.6,28.1,98,27.3z M93.6,21h1.2c1.5,0.1,2.1,1,2.1,2.7c0,1.6-1,2.4-2.2,2.4h-1.2V21z M95,34.7h-1.4v-5.9h1.1
		c2,0,2.7,1,2.7,2.9C97.3,33.7,96.7,34.7,95,34.7z"></path></g><path d="M79.6,42.7c0.1-0.9,0.1-1.8,0.1-2.7s-0.1-1.8-0.1-2.7H60l18.9-5.1c-0.3-1.8-0.8-3.5-1.4-5.2l-18.9,5.1l16.9-9.8
	c-0.8-1.6-1.6-3.1-2.7-4.6L56,27.5l13.8-13.9c-1.2-1.3-2.4-2.6-3.8-3.8L52.2,23.7l9.8-17c-1.5-1-3-1.9-4.6-2.7l-9.7,17.1l5-19
	c-1.6-0.6-3.4-1-5.2-1.4l-5,19V0.1C41.6,0.1,40.7,0,39.8,0s-1.8,0.1-2.7,0.1v26.8c0.9-0.2,1.8-0.3,2.7-0.3c7.3,0,13.3,6,13.3,13.3
	s-6,13.3-13.3,13.3s-13.3-6-13.3-13.3c0-5.9,3.8-10.9,9.1-12.6L22.3,4.1c-1.6,0.8-3.1,1.7-4.6,2.7l9.8,17L13.6,9.9
	c-1.3,1.2-2.6,2.4-3.8,3.8l13.8,13.9L6.7,17.8c-1,1.5-1.9,3-2.7,4.6L21,32.2L2.1,27.1c-0.6,1.7-1,3.4-1.4,5.2l18.9,5.1H0.1
	C0.1,38.2,0,39.1,0,40s0.1,1.8,0.1,2.7h19.5L0.7,47.7c0.3,1.8,0.8,3.5,1.4,5.2L21,47.8L4.1,57.7c0.8,1.6,1.6,3.1,2.7,4.6l16.9-9.8
	L9.9,66.3c1.2,1.3,2.4,2.6,3.8,3.8l13.8-13.9l-9.8,17c1.5,1,3,1.9,4.6,2.7l9.8-17L27,77.9c1.6,0.6,3.4,1,5.2,1.4l5-19v19.6
	c0.9,0.1,1.8,0.1,2.7,0.1s1.8-0.1,2.7-0.1V60.3l5,19c1.8-0.3,3.5-0.8,5.2-1.4l-5-19l9.8,17c1.6-0.8,3.1-1.7,4.6-2.7l-9.8-17
	l13.9,13.9c1.3-1.2,2.6-2.4,3.8-3.8L56.1,52.4L73,62.2c1-1.5,1.9-3,2.7-4.6l-16.9-9.8l18.9,5.1c0.6-1.7,1-3.4,1.4-5.2l-19-5
	C60,42.7,79.6,42.7,79.6,42.7z"></path></svg>