<svg width="136" height="32" viewBox="0 0 136 32" fill="none" xmlns="http://www.w3.org/2000/svg">
<path fill-rule="evenodd" clip-rule="evenodd" d="M56.0218 4H53.1645V10.7634C52.132 9.92915 50.8458 9.4763 49.5208 9.48054C45.8822 9.48054 43 12.2708 43 16.0057C43 19.5807 45.8822 22.502 49.3929 22.502C53.7087 22.502 56.0578 19.5807 56.0578 15.4502C56.0578 13.8556 56.0218 4 56.0218 4ZM49.5121 19.7654C47.5852 19.7654 46.0187 17.961 46.0187 16.0218C46.0187 13.9891 47.4759 12.2383 49.5531 12.2383C51.7122 12.2383 53.1993 14.0128 53.1993 16.0007C53.1993 17.9348 51.6712 19.7654 49.5121 19.7654ZM107.613 22.2087V15.9994C107.613 12.2646 104.822 9.44316 101.117 9.44316C97.4129 9.44316 94.6202 12.2596 94.6202 15.9944V22.2087H97.6165V15.942C97.6165 13.8045 99.0315 12.2372 101.112 12.2372C103.16 12.2372 104.607 13.8393 104.607 15.942V22.2087H107.613ZM115.189 22.5257C111.699 22.5257 108.796 19.5758 108.796 15.9993C108.796 12.2646 111.699 9.44688 115.209 9.44688C119.603 9.44688 121.824 12.7912 121.824 16.2539C121.824 16.2539 121.809 19.9701 121.809 20.7912C121.809 24.8067 119.445 28 115.421 28C111.071 28 109.374 23.9508 109.374 23.9271H112.344L112.349 23.9352C112.42 24.0487 113.16 25.2385 115.29 25.2385C117.774 25.2385 119.017 23.4841 119.017 21.0033C118.1 22.0915 116.698 22.5257 115.189 22.5257ZM111.796 16.0192C111.796 17.9628 113.365 19.7692 115.293 19.7703C117.46 19.7692 118.989 17.9366 118.989 15.9981C118.989 14.0065 117.5 12.2296 115.337 12.2296C113.256 12.2296 111.796 13.9841 111.796 16.0192ZM123.007 16.0319C123.007 12.297 125.799 9.48051 129.504 9.48051C133.207 9.48051 136 12.292 136 16.0319C135.951 19.5657 133.111 22.4185 129.593 22.4673C126.005 22.5171 123.056 19.6358 123.007 16.0319ZM126.004 15.9782C126.004 17.9959 127.509 19.7766 129.504 19.7766V19.7716C131.497 19.7716 133.002 17.9909 133.002 15.9782C133.002 13.9292 131.492 12.2346 129.504 12.2346C127.477 12.2346 126.004 13.8968 126.004 15.9782ZM87.3688 9.45064C91.4795 9.45064 93.435 12.685 93.435 15.9133C93.4443 16.306 93.4205 16.6988 93.3641 17.0875H84.3425C84.3425 17.9035 85.1115 19.7653 87.4358 19.7653C89.6224 19.7653 90.2161 18.4227 90.2161 18.4227H93.2176C92.927 19.8751 90.9478 22.4957 87.5339 22.4957C83.2979 22.4957 81.3412 18.923 81.3412 15.912C81.3412 12.7025 83.2979 9.45064 87.3688 9.45064ZM87.4297 12.2334C85.3575 12.2334 84.3426 13.8118 84.3426 14.7215H90.4348C90.4348 13.8118 89.5018 12.2334 87.4297 12.2334ZM75.3544 18.8907L78.5634 9.73389H81.6964L77.1372 22.2125H73.5594L69.0001 9.73389H72.132L75.3544 18.8907ZM63.1638 9.45064C67.2746 9.45064 69.2312 12.685 69.2312 15.9133C69.2405 16.306 69.2168 16.6988 69.1604 17.0875H60.1376C60.1376 17.9035 60.9078 19.7653 63.2309 19.7653C65.4185 19.7653 66.0111 18.4227 66.0111 18.4227H69.0138C68.7231 19.8751 66.7441 22.4957 63.3303 22.4957C59.094 22.4957 57.1361 18.923 57.1361 15.912C57.1361 12.7025 59.094 9.45064 63.1638 9.45064ZM63.221 12.2334C61.1475 12.2334 60.1326 13.8118 60.1326 14.7215H66.2249C66.2249 13.8118 65.2943 12.2334 63.221 12.2334Z" fill="white"/>
<path fill-rule="evenodd" clip-rule="evenodd" d="M18.1114 32H0V27.4286H18.1402C24.4408 27.4286 29.6458 22.3722 29.6821 16.0664C29.7126 9.74852 24.6208 4.60208 18.3094 4.57163C18.2951 4.5715 18.2809 4.5715 18.2667 4.5715H0V0H18.2667C27.1043 0.0104012 34.2604 7.19059 34.25 16.0376C34.25 16.0383 34.25 16.0392 34.25 16.0401C34.225 24.8835 26.9468 31.995 18.1114 31.995" fill="#5CB70B"/>
<path fill-rule="evenodd" clip-rule="evenodd" d="M8.98109 32H0V27.4286H9.01615C15.3175 27.4286 20.5256 22.3722 20.5619 16.0664C20.5909 9.74702 15.4952 4.60057 9.18032 4.57163C9.1673 4.5715 9.1544 4.5715 9.14138 4.5715H0V0H9.14138C17.9811 0.0131581 25.1368 7.1941 25.125 16.0401C25.0999 24.8835 17.8194 31.995 8.98109 31.995" fill="#8DED2D"/>
<path fill-rule="evenodd" clip-rule="evenodd" d="M0 32V27.4286C6.30862 27.421 11.421 22.3087 11.4286 16C11.4217 9.691 6.309 4.57839 0 4.5715V0C8.83222 0.0104012 15.9896 7.16778 16 16C15.9896 24.8322 8.83222 31.9896 0 32Z" fill="#CAFF84"/>
</svg>
