<svg version="1.1" xmlns="http://www.w3.org/2000/svg" x="0" y="0" viewBox="0 0 164 31" xml:space="preserve"><path fill="#d85527" d="M46.3 6.6l3.5 13.9h.1l3.5-13.9h5v19h-3.8v-5.5l.3-7.4-3.8 12.9h-2.5l-3.7-12.8.3 7.3v5.5h-3.8v-19z"/><path fill="#d85527" d="M70.5 21.5h-5.2l-1.1 4.1h-3.9l5.5-19h4l5.5 19h-3.9l-.9-4.1zm-4.4-2.9h3.6l-1.8-6.7h-.1l-1.7 6.7z"/><path fill="#d85527" d="M89.4 25.6h-3.6l-5.7-12.2-.1.1v12.1h-3.6v-19H80l5.7 12.1h.1V6.6h3.6z"/><path fill="#d85527" d="M105.8 22.6c-.5.8-1.3 1.5-2.3 2.1s-2.3.9-3.9.9c-2 0-3.7-.6-4.9-1.8-1.2-1.2-1.8-2.9-1.8-5.1v-5.6c0-2.2.6-3.8 1.8-5 1.2-1.2 2.8-1.8 4.7-1.8 2.1 0 3.7.5 4.7 1.5 1.1 1 1.6 2.5 1.6 4.4v.1h-3.5c0-1.1-.3-1.8-.7-2.3-.4-.5-1.1-.7-2.1-.7-.9 0-1.6.3-2.1 1-.5.6-.8 1.6-.8 2.9V19c0 1.3.3 2.3.8 2.9s1.3 1 2.3 1c.7 0 1.3-.1 1.6-.3.4-.2.6-.5.9-.9v-3.6h-2.5v-2.6h6.2v7.1z"/><path fill="#d85527" d="M121.4 18.6c0 2.2-.6 3.9-1.8 5.2-1.2 1.2-2.8 1.9-4.8 1.9s-3.6-.6-4.8-1.9c-1.2-1.2-1.8-3-1.8-5.2v-5.3c0-2.2.6-3.9 1.8-5.2 1.2-1.3 2.8-1.9 4.8-1.9s3.6.6 4.8 1.9c1.2 1.3 1.8 3 1.8 5.2v5.3zm-3.7-5.3c0-1.4-.3-2.4-.8-3.1-.5-.7-1.2-1-2.2-1s-1.7.3-2.2 1-.7 1.7-.7 3.1v5.3c0 1.4.2 2.4.7 3.1s1.2 1 2.2 1 1.7-.3 2.2-1 .8-1.7.8-3.1v-5.3z"/><path fill="#d85527" d="M127.5 18.6v6.8h-3.7V6.5h6.6c1.9 0 3.4.6 4.5 1.7s1.6 2.6 1.6 4.4-.6 3.3-1.7 4.4c-1.1 1.1-2.6 1.7-4.5 1.7h-2.8v-.1zm0-3h2.9c.8 0 1.4-.3 1.8-.9.4-.6.6-1.3.6-2.2s-.2-1.6-.6-2.2c-.4-.6-1-.9-1.8-.9h-2.9v6.2z"/><path fill="#d85527" d="M145.7 21.3h-5l-1 4H136l5.4-18.9h3.9l5.3 18.9h-3.7l-1.2-4zm-4.3-2.9h3.5l-1.7-6.7h-.1l-1.7 6.7z"/><path fill="#d85527" d="M156.6 14.6l3.2-8.1h4l-5.4 12.2v6.7h-3.7v-7l-5.3-11.9h4z"/><path fill="#edc05c" d="M10.1 15.5l-5.3-5.4 5.3-5.3z"/><path fill="#a9be68" d="M10.1 26.1l-5.3-5.3 5.3-5.3z"/><path fill="#e7804c" d="M15.5 20.8l-5.4-5.3 5.4-5.4z"/><path fill="#d43d29" d="M15.5 10.1l5.3 5.4-5.3 5.3z"/><path fill="#cd302f" d="M20.8 15.5l5.3-5.4-5.3-5.3z"/><path fill="#d43d29" d="M20.8 26.1l5.3-5.3-5.3-5.3z"/><path d="M31 15.5c0-.3-.1-.6-.3-.8l-4.5-4.5v10.6l4.5-4.4c.1-.3.3-.6.3-.9z" fill="#c22b2b"/><path d="M.4 14.5c-.3.2-.4.6-.4.9 0 .3.1.6.3.8l4.5 4.5V10.1L.4 14.5z" fill="#c7cd2c"/><path fill="#ed9b32" d="M14.6 30.6c.2.2.5.4.9.4V20.8l-5.4 5.4 4.5 4.4z"/><path d="M15.5 31c.3 0 .6-.1.9-.3l4.5-4.5-5.4-5.4V31z" fill="#e26550"/><path fill="#e7804c" d="M15.5 0c-.3 0-.6.1-.9.3l-4.5 4.4 5.4 5.4V0z"/><path fill="#ed9b32" d="M16.4.4c-.3-.3-.6-.4-.9-.4v10.1l5.4-5.4L16.4.4z"/></svg>