<svg width="144px" height="50px" viewBox="0 0 144 50" version="1.1" xmlns="http://www.w3.org/2000/svg">
    <g id="Navigation" stroke="none" stroke-width="1" fill="none" fill-rule="evenodd">
        <g id="Modulr---Mobile-Nav-Partners" transform="translate(-31.000000, -15.000000)" fill-rule="nonzero">
            <g id="modulr-logo-dark" transform="translate(31.000000, 15.000000)">
                <g id="logo" transform="translate(0.000000, 20.833333)" fill="#5C686D">
                    <path class="letter" d="M5.28937699,27.9596097 L0,27.9596097 L0,1.6523564 L7.31817913,1.6523564 L13.8703819,16.3061487 C16.1579599,11.2186303 18.3006233,6.45723489 20.4639889,1.6523564 L27.7200618,1.6523564 C28.0305927,2.69594992 28.1444541,25.4049797 27.8442742,27.9378681 L22.4617379,27.9378681 C22.3789297,26.2094164 22.4306848,24.4374816 22.4203338,22.6764175 C22.4099828,20.8827411 22.4203338,19.0890648 22.4203338,17.3062592 L22.4203338,11.9469716 L22.151207,11.8491347 C19.8118739,16.4257271 17.7934228,21.1979933 15.4954938,25.8289396 L12.2038659,25.8289396 L5.59990793,11.7947809 L5.28937699,11.8708763 L5.28937699,27.9596097 Z" id="Path"></path>
                    <path class="letter" d="M74.7862011,7.85956369 L80.0031209,7.85956369 C80.034174,8.34874815 80.0859291,8.82706184 80.0859291,9.30537554 C80.0962802,12.3383192 80.0755781,15.3821336 80.0962802,18.4150773 C80.0962802,19.2086432 80.1790884,20.0022091 80.3343539,20.7849042 C80.8208524,23.1982143 82.8289524,24.2852908 84.992318,23.3069219 C86.7726954,22.5024852 87.5179696,20.9697073 87.5490227,19.0238402 C87.5904268,16.3822441 87.5593737,13.7515188 87.5697248,11.1099227 L87.5697248,7.89217598 L92.7866445,7.89217598 L92.7866445,27.9487389 L87.642182,27.9487389 C87.5904268,27.1986561 87.5593737,26.5246686 87.4972675,25.6550073 C87.1039284,26.0137426 86.8244505,26.2420287 86.5760258,26.5137978 C84.661085,28.5901141 82.2906988,28.7314341 79.8582064,28.0248343 C77.2807997,27.2747514 75.6246346,25.4484628 75.07603,22.654676 C74.8897114,21.632824 74.7965521,20.5892305 74.8069032,19.5456369 C74.7654991,15.7082566 74.7862011,11.881747 74.7862011,7.85956369 Z" id="Path"></path>
                    <path class="letter" d="M95.2294879,0.0978368923 L100.073771,0.0978368923 C100.363599,1.18491347 100.446408,25.8832934 100.16693,27.9161266 L95.2294879,27.9161266 L95.2294879,0.0978368923 Z" id="Path"></path>
                    <path class="letter" d="M102.671879,7.85956369 L107.764587,7.85956369 C107.837044,8.58790499 107.909501,9.30537554 107.99231,10.1859076 C109.70023,8.80532031 111.30464,7.48995765 113.561164,7.51169918 L113.561164,12.6535714 C113.074666,12.6753129 112.608869,12.7079252 112.153424,12.7079252 C110.631822,12.7296668 109.555315,13.5341034 108.810041,14.8712076 C108.188979,15.9908965 107.857746,17.2736469 107.878448,18.5781388 C107.878448,21.165381 107.878448,23.7526233 107.868097,26.3507363 L107.868097,27.9813512 C106.129124,28.0683173 104.400502,28.0683173 102.661528,27.9813512 L102.671879,7.85956369 Z" id="Path"></path>
                    <path class="letter" d="M67.3334586,0.0869661265 C67.3334586,1.85890095 67.3541606,3.44603276 67.3231075,5.03316457 C67.2920545,6.57681332 67.457671,8.13133283 67.1885441,9.80543077 C66.8987153,9.59888622 66.7330988,9.51192009 66.6088864,9.3814709 C63.8762141,6.66377945 58.6592944,6.75074557 55.6367932,9.96849225 C53.4113215,12.3383192 52.6556962,15.1647183 52.7695575,18.3933358 C52.8834189,21.8719808 54.3015102,24.5788015 56.8478639,26.7094716 C59.4977279,28.9271078 63.824459,29.014074 66.3604616,26.3833486 C66.5881843,26.1550626 66.8469601,25.948518 67.2195972,25.622395 C67.3024055,26.5137978 67.3748627,27.2203976 67.4473199,28.0139635 C69.2069952,28.0248343 70.8735113,28.1226712 72.5193253,27.9596097 L72.5193253,0.0869661265 L67.3334586,0.0869661265 Z M66.7123967,20.9914488 C65.170093,24.3179031 61.0710846,24.55706 59.0526335,21.5132456 C58.3798165,20.5022643 58.1003387,19.4804123 58.1003387,17.9150221 C58.0071794,16.338761 58.535082,14.7951123 59.5598341,13.6319403 C61.4747749,11.4251749 64.5179781,11.5447533 66.1844941,13.9580633 C67.7164467,16.1648288 67.8303081,18.5890095 66.7123967,20.9914488 L66.7123967,20.9914488 Z" id="Shape"></path>
                    <path class="letter" d="M48.0908914,11.001215 C45.8550686,8.28352355 42.9464288,7.34863769 39.5823437,7.44647458 C34.2101584,7.59866531 29.1381531,12.8166329 30.2353624,19.7847938 C31.0220408,24.8179584 35.5661435,28.6988218 40.34832,28.3074742 L40.9176267,28.3074742 C45.0683903,28.177025 48.1012424,26.0789672 49.7056523,22.14375 C51.3100621,18.2085327 50.8546168,14.3494109 48.0908914,11.001215 Z M43.9504789,21.9372054 C41.8699216,24.5461892 37.8640725,24.1548416 36.2286095,21.165381 C35.2142085,19.3173509 35.1624533,17.3823545 35.8766745,15.4256167 C36.715108,13.1210143 38.7335591,11.881747 41.0625412,12.1969992 C43.1948536,12.4796392 44.9131248,14.436377 45.1615495,16.8822993 C45.1822516,17.2301638 45.1822516,17.5780283 45.1615495,17.9258928 C45.2547088,19.4151877 44.8717207,20.7849042 43.9504789,21.9372054 L43.9504789,21.9372054 Z" id="Shape"></path>
                </g>
                <g id="Group" transform="translate(111.652174, 0.000000)" fill="#FEDF3B">
                    <polygon class="shape" id="Path" points="21.5862726 10.7215826 21.5862726 0 0 0 0 21.5487965 10.7402288 21.5487965 10.7402288 10.7215826"></polygon>
                    <polygon class="shape" id="Path" points="21.5862726 10.7215826 21.5862726 21.5487965 10.7402288 21.5487965 10.7402288 32.270379 32.3265014 32.270379 32.3265014 10.7215826"></polygon>
                </g>
            </g>
        </g>
    </g>
</svg>